# xmcd
#
# Track frame offsets:
#	150
#	15680
#	34116
#	45846
#	62977
#	77707
#	90861
#	111073
#	128909
#	147944
#	163489
#	182448
#	199949
#	216579
#	235444
#	249310
#	266507
#	283333
#
# Disc length: 3983 seconds
#
# Revision: 1
# Processed by: cddbd v1.5.1PL2 Copyright (c) Steve Scherf et al.
# Submitted via: audiograbber 1.83.01
#
DISCID=050f8d12
DTITLE=Various Artist - CDX 389 Feb 2006
DYEAR=2006
DGENRE=Country
TTITLE0=Bomshel - It Was An Absolutely Finger Lickin', Grits And Chicken Countr
TTITLE0=y Music Love Song
TTITLE1=Terri Clark - Damn Right
TTITLE2=Eddy Arnold - Don't She Look Good
TTITLE3=Blaine Larsen - I Don't Know What She Said
TTITLE4=Reba McEntire - Love Needs A Holiday
TTITLE5=Ashley Monroe - Satisfied
TTITLE6=Brad Paisley - She's Everything
TTITLE7=Phil Vassar - The Last Day Of My Life
TTITLE8=George Strait - The Seashores Of Old Mexico
TTITLE9=Ty England - Redneck Anthem
TTITLE10=Todd Fritsch - I Forgot That I Don't Live Here Anymore
TTITLE11=Van Preston - Absolutely Broken
TTITLE12=Rachel Williams - Some Things Make Her Cry
TTITLE13=Matt Stillwell - Turn Around
TTITLE14=Big Rain - December Night
TTITLE15=Joshua Motohashi - Memories Of You
TTITLE16=Delana Stevens - Welcome To My World
TTITLE17=Sue Fabisch - Soccer Mom
EXTD=
EXTT0=
EXTT1=
EXTT2=
EXTT3=
EXTT4=
EXTT5=
EXTT6=
EXTT7=
EXTT8=
EXTT9=
EXTT10=
EXTT11=
EXTT12=
EXTT13=
EXTT14=
EXTT15=
EXTT16=
EXTT17=
PLAYORDER=
